name rise30.6535peak61.5555fall82.9339.mot
datacolumns 19
datarows 64
range 12.499945 12.604951
endheader
time	ground_force1_vx	ground_force1_vy	ground_force1_vz	ground_force1_px	ground_force1_py	ground_force1_pz	ground_force2_vx	ground_force2_vy	ground_force2_vz	ground_force2_px	ground_force2_py	ground_force2_pz	ground_torque1_x	ground_torque1_y	ground_torque1_z	ground_torque2_x	ground_torque2_y	ground_torque2_z	
12.499945	-9.397284	70.902042	-14.837235	0.346048	0.000000	0.047735	-60.657873	732.985619	-44.879647	0.128667	0.000000	-0.118329	0.000000	-11.659413	0.000000	0.000000	-22.845781	0.000000	
12.501619	-9.326761	79.775109	-15.824498	0.350928	0.000000	0.048356	-61.560414	729.752452	-44.412529	0.127366	0.000000	-0.118214	0.000000	-12.561521	0.000000	0.000000	-22.867967	0.000000	
12.503279	-9.015381	88.674624	-16.639099	0.355344	0.000000	0.048922	-62.468167	726.394418	-43.926688	0.126058	0.000000	-0.118098	0.000000	-13.339945	0.000000	0.000000	-22.890687	0.000000	
12.504948	-8.471176	97.567626	-17.280122	0.359370	0.000000	0.049442	-63.379249	722.907244	-43.421882	0.124744	0.000000	-0.117980	0.000000	-13.991555	0.000000	0.000000	-22.913567	0.000000	
12.506620	-7.709660	106.443216	-17.754367	0.363062	0.000000	0.049923	-64.291677	719.286641	-42.897898	0.123423	0.000000	-0.117861	0.000000	-14.519496	0.000000	0.000000	-22.936219	0.000000	
12.508280	-6.751798	115.309514	-18.074659	0.366468	0.000000	0.050370	-65.203369	715.528332	-42.354561	0.122097	0.000000	-0.117740	0.000000	-14.931941	0.000000	0.000000	-22.958235	0.000000	
12.509945	-5.621890	124.189581	-18.257961	0.369626	0.000000	0.050788	-66.112152	711.628062	-41.791731	0.120767	0.000000	-0.117617	0.000000	-15.240659	0.000000	0.000000	-22.979190	0.000000	
12.511617	-4.345530	133.116821	-18.323479	0.372568	0.000000	0.051181	-67.015762	707.581626	-41.209309	0.119433	0.000000	-0.117493	0.000000	-15.459533	0.000000	0.000000	-22.998643	0.000000	
12.513284	-2.947824	142.130316	-18.290904	0.375321	0.000000	0.051552	-67.911855	703.384887	-40.607240	0.118097	0.000000	-0.117367	0.000000	-15.603165	0.000000	0.000000	-23.016141	0.000000	
12.514950	-1.451936	151.270499	-18.178928	0.377906	0.000000	0.051903	-68.798008	699.033799	-39.985513	0.116759	0.000000	-0.117239	0.000000	-15.685663	0.000000	0.000000	-23.031214	0.000000	
12.516615	0.121958	160.575425	-18.004085	0.380343	0.000000	0.052237	-69.671727	694.524430	-39.344163	0.115420	0.000000	-0.117110	0.000000	-15.719678	0.000000	0.000000	-23.043382	0.000000	
12.518283	1.757317	170.077843	-17.779960	0.382648	0.000000	0.052555	-70.530455	689.852987	-38.683276	0.114082	0.000000	-0.116978	0.000000	-15.715721	0.000000	0.000000	-23.052155	0.000000	
12.519950	3.441486	179.803134	-17.516759	0.384834	0.000000	0.052859	-71.371578	685.015837	-38.002987	0.112745	0.000000	-0.116845	0.000000	-15.681761	0.000000	0.000000	-23.057031	0.000000	
12.521616	5.165619	189.768129	-17.221209	0.386913	0.000000	0.053150	-72.192430	680.009532	-37.303487	0.111412	0.000000	-0.116710	0.000000	-15.623093	0.000000	0.000000	-23.057501	0.000000	
12.523285	6.924330	199.980723	-16.896741	0.388896	0.000000	0.053430	-72.990309	674.830828	-36.585019	0.110082	0.000000	-0.116572	0.000000	-15.542429	0.000000	0.000000	-23.053051	0.000000	
12.524945	8.715149	210.440187	-16.543875	0.390792	0.000000	0.053699	-73.762475	669.476708	-35.847883	0.108758	0.000000	-0.116433	0.000000	-15.440166	0.000000	0.000000	-23.043158	0.000000	
12.526618	10.537861	221.138007	-16.160768	0.392607	0.000000	0.053958	-74.506167	663.944401	-35.092436	0.107440	0.000000	-0.116291	0.000000	-15.314791	0.000000	0.000000	-23.027300	0.000000	
12.528281	12.393800	232.059105	-15.743826	0.394350	0.000000	0.054208	-75.218608	658.231399	-34.319096	0.106130	0.000000	-0.116147	0.000000	-15.163344	0.000000	0.000000	-23.004950	0.000000	
12.529951	14.285156	243.183271	-15.288342	0.396025	0.000000	0.054449	-75.897017	652.335470	-33.528340	0.104830	0.000000	-0.116001	0.000000	-14.981921	0.000000	0.000000	-22.975585	0.000000	
12.531611	16.214345	254.486674	-14.789105	0.397639	0.000000	0.054682	-76.538615	646.254677	-32.720708	0.103541	0.000000	-0.115852	0.000000	-14.766146	0.000000	0.000000	-22.938679	0.000000	
12.533278	18.183487	265.943312	-14.240928	0.399195	0.000000	0.054908	-77.140640	639.987380	-31.896804	0.102264	0.000000	-0.115701	0.000000	-14.511608	0.000000	0.000000	-22.893715	0.000000	
12.534945	20.193987	277.526327	-13.639095	0.400698	0.000000	0.055127	-77.700355	633.532255	-31.057297	0.101001	0.000000	-0.115547	0.000000	-14.214213	0.000000	0.000000	-22.840180	0.000000	
12.536612	22.246259	289.209095	-12.979684	0.402151	0.000000	0.055339	-78.215058	626.888298	-30.202922	0.099753	0.000000	-0.115390	0.000000	-13.870463	0.000000	0.000000	-22.777571	0.000000	
12.538285	24.339566	300.966079	-12.259786	0.403557	0.000000	0.055545	-78.682097	620.054834	-29.334483	0.098522	0.000000	-0.115230	0.000000	-13.477640	0.000000	0.000000	-22.705396	0.000000	
12.539952	26.471974	312.773420	-11.477615	0.404918	0.000000	0.055745	-79.098879	613.031527	-28.452849	0.097310	0.000000	-0.115067	0.000000	-13.033908	0.000000	0.000000	-22.623175	0.000000	
12.541615	28.640402	324.609274	-10.632522	0.406238	0.000000	0.055940	-79.462885	605.818390	-27.558958	0.096118	0.000000	-0.114900	0.000000	-12.538337	0.000000	0.000000	-22.530448	0.000000	
12.543278	30.840742	336.453937	-9.724937	0.407518	0.000000	0.056128	-79.771680	598.415798	-26.653815	0.094949	0.000000	-0.114731	0.000000	-11.990868	0.000000	0.000000	-22.426769	0.000000	
12.544947	33.068034	348.289785	-8.756248	0.408760	0.000000	0.056312	-80.022926	590.824509	-25.738487	0.093803	0.000000	-0.114557	0.000000	-11.392226	0.000000	0.000000	-22.311717	0.000000	
12.546611	35.316666	360.101076	-7.728648	0.409964	0.000000	0.056491	-80.214397	583.045677	-24.814105	0.092683	0.000000	-0.114380	0.000000	-10.743802	0.000000	0.000000	-22.184894	0.000000	
12.548282	37.580583	371.873660	-6.644962	0.411134	0.000000	0.056664	-80.343992	575.080887	-23.881859	0.091590	0.000000	-0.114199	0.000000	-10.047523	0.000000	0.000000	-22.045925	0.000000	
12.549958	39.853490	383.594648	-5.508470	0.412269	0.000000	0.056834	-80.409744	566.932177	-22.942988	0.090527	0.000000	-0.114014	0.000000	-9.305709	0.000000	0.000000	-21.894467	0.000000	
12.551616	42.129035	395.252068	-4.322743	0.413370	0.000000	0.056998	-80.409836	558.602076	-21.998779	0.089494	0.000000	-0.113825	0.000000	-8.520947	0.000000	0.000000	-21.730203	0.000000	
12.553285	44.400959	406.834544	-3.091502	0.414438	0.000000	0.057158	-80.342609	550.093638	-21.050557	0.088496	0.000000	-0.113631	0.000000	-7.695971	0.000000	0.000000	-21.552849	0.000000	
12.554945	46.663220	418.331026	-1.818496	0.415474	0.000000	0.057314	-80.206573	541.410481	-20.099674	0.087532	0.000000	-0.113432	0.000000	-6.833572	0.000000	0.000000	-21.362153	0.000000	
12.556616	48.910071	429.730572	-0.507418	0.416477	0.000000	0.057466	-80.000419	532.556818	-19.147507	0.086606	0.000000	-0.113229	0.000000	-5.936524	0.000000	0.000000	-21.157894	0.000000	
12.558285	51.136121	441.022213	0.838153	0.417449	0.000000	0.057614	-79.723019	523.537490	-18.195441	0.085720	0.000000	-0.113020	0.000000	-5.007535	0.000000	0.000000	-20.939888	0.000000	
12.559953	53.336348	452.194872	2.214782	0.418390	0.000000	0.057759	-79.373437	514.357978	-17.244862	0.084876	0.000000	-0.112806	0.000000	-4.049222	0.000000	0.000000	-20.707979	0.000000	
12.561620	55.506103	463.237353	3.619188	0.419299	0.000000	0.057899	-78.950931	505.024418	-16.297153	0.084076	0.000000	-0.112587	0.000000	-3.064106	0.000000	0.000000	-20.462050	0.000000	
12.563282	57.641091	474.138389	5.048232	0.420176	0.000000	0.058036	-78.454954	495.543581	-15.353682	0.083323	0.000000	-0.112361	0.000000	-2.054615	0.000000	0.000000	-20.202014	0.000000	
12.564946	59.737335	484.886721	6.498890	0.421022	0.000000	0.058169	-77.885153	485.922849	-14.415800	0.082619	0.000000	-0.112129	0.000000	-1.023106	0.000000	0.000000	-19.927818	0.000000	
12.566614	61.791141	495.471218	7.968228	0.421836	0.000000	0.058298	-77.241371	476.170155	-13.484843	0.081967	0.000000	-0.111891	0.000000	0.028111	0.000000	0.000000	-19.639441	0.000000	
12.568284	63.799059	505.881007	9.453364	0.422617	0.000000	0.058424	-76.523641	466.293910	-12.562124	0.081370	0.000000	-0.111646	0.000000	1.096748	0.000000	0.000000	-19.336897	0.000000	
12.569949	65.757848	516.105610	10.951437	0.423367	0.000000	0.058547	-75.732185	456.302900	-11.648949	0.080830	0.000000	-0.111393	0.000000	2.180508	0.000000	0.000000	-19.020233	0.000000	
12.571611	67.664442	526.135075	12.459578	0.424083	0.000000	0.058667	-74.867414	446.206165	-10.746615	0.080352	0.000000	-0.111133	0.000000	3.277067	0.000000	0.000000	-18.689535	0.000000	
12.573279	69.515930	535.960095	13.974891	0.424766	0.000000	0.058783	-73.929923	436.012869	-9.856426	0.079937	0.000000	-0.110865	0.000000	4.384055	0.000000	0.000000	-18.344924	0.000000	
12.574950	71.309540	545.572111	15.494439	0.425416	0.000000	0.058897	-72.920498	425.732157	-8.979705	0.079591	0.000000	-0.110589	0.000000	5.499043	0.000000	0.000000	-17.986564	0.000000	
12.576618	73.042637	554.963381	17.015241	0.426031	0.000000	0.059007	-71.840112	415.373023	-8.117802	0.079315	0.000000	-0.110304	0.000000	6.619546	0.000000	0.000000	-17.614665	0.000000	
12.578284	74.712719	564.127047	18.534272	0.426612	0.000000	0.059114	-70.689939	404.944193	-7.272114	0.079115	0.000000	-0.110010	0.000000	7.743017	0.000000	0.000000	-17.229487	0.000000	
12.579952	76.317430	573.057154	20.048476	0.427157	0.000000	0.059219	-69.471359	394.454036	-6.444086	0.078994	0.000000	-0.109706	0.000000	8.866865	0.000000	0.000000	-16.831346	0.000000	
12.581614	77.854567	581.748670	21.554780	0.427667	0.000000	0.059320	-68.185977	383.910531	-5.635221	0.078957	0.000000	-0.109391	0.000000	9.988462	0.000000	0.000000	-16.420618	0.000000	
12.583280	79.322102	590.197476	23.050119	0.428140	0.000000	0.059419	-66.835633	373.321279	-4.847071	0.079009	0.000000	-0.109066	0.000000	11.105164	0.000000	0.000000	-15.997747	0.000000	
12.584951	80.718195	598.400342	24.531453	0.428577	0.000000	0.059515	-65.422426	362.693593	-4.081234	0.079155	0.000000	-0.108729	0.000000	12.214329	0.000000	0.000000	-15.563244	0.000000	
12.586618	82.041212	606.354898	25.995792	0.428976	0.000000	0.059609	-63.948729	352.034666	-3.339322	0.079401	0.000000	-0.108380	0.000000	13.313342	0.000000	0.000000	-15.117696	0.000000	
12.588282	83.289739	614.059590	27.440224	0.429336	0.000000	0.059700	-62.417208	341.351806	-2.622933	0.079753	0.000000	-0.108017	0.000000	14.399629	0.000000	0.000000	-14.661760	0.000000	
12.589947	84.462599	621.513639	28.861931	0.429658	0.000000	0.059789	-60.830836	330.652754	-1.933604	0.080217	0.000000	-0.107641	0.000000	15.470686	0.000000	0.000000	-14.196167	0.000000	
12.591616	85.558856	628.716995	30.258216	0.429941	0.000000	0.059875	-59.192896	319.946047	-1.272754	0.080801	0.000000	-0.107250	0.000000	16.524090	0.000000	0.000000	-13.721710	0.000000	
12.593281	86.577823	635.670289	31.626515	0.430185	0.000000	0.059959	-57.506981	309.241418	-0.641618	0.081512	0.000000	-0.106843	0.000000	17.557518	0.000000	0.000000	-13.239238	0.000000	
12.594950	87.519069	642.374793	32.964411	0.430388	0.000000	0.060041	-55.776975	298.550196	-0.041182	0.082359	0.000000	-0.106419	0.000000	18.568762	0.000000	0.000000	-12.749637	0.000000	
12.596611	88.382411	648.832375	34.269652	0.430550	0.000000	0.060121	-54.007029	287.885660	0.527890	0.083353	0.000000	-0.105977	0.000000	19.555739	0.000000	0.000000	-12.253818	0.000000	
12.598277	89.167915	655.045467	35.540152	0.430672	0.000000	0.060199	-52.201507	277.263306	1.065315	0.084502	0.000000	-0.105516	0.000000	20.516501	0.000000	0.000000	-11.752690	0.000000	
12.599951	89.875886	661.017025	36.774001	0.430751	0.000000	0.060275	-50.364928	266.700973	1.571242	0.085820	0.000000	-0.105034	0.000000	21.449240	0.000000	0.000000	-11.247135	0.000000	
12.601614	90.506864	666.750498	37.969465	0.430789	0.000000	0.060349	-48.501884	256.218778	2.046274	0.087317	0.000000	-0.104529	0.000000	22.352294	0.000000	0.000000	-10.737984	0.000000	
12.603280	91.061605	672.249802	39.124994	0.430785	0.000000	0.060421	-46.616950	245.838818	2.491468	0.089010	0.000000	-0.104001	0.000000	23.224150	0.000000	0.000000	-10.225990	0.000000	
12.604951	91.541076	677.519286	40.239212	0.430738	0.000000	0.060492	-44.714581	235.584598	2.908290	0.090913	0.000000	-0.103446	0.000000	24.063445	0.000000	0.000000	-9.711805	0.000000	
